<?xml version="1.0" encoding="utf-8"?>
<!-- Generator: Adobe Illustrator 26.0.1, SVG Export Plug-In . SVG Version: 6.00 Build 0)  -->
<svg version="1.1" id="Layer_1" xmlns="http://www.w3.org/2000/svg" xmlns:xlink="http://www.w3.org/1999/xlink" x="0px" y="0px"
	 viewBox="0 0 101 101" style="enable-background:new 0 0 101 101;" xml:space="preserve">
<style type="text/css">
	.st0{fill:#ED1C24;}
</style>
<g id="Info">
	<path class="st0" d="M78.5,22c-8-8-18.5-12-29-12s-21,4-29,12c-16,16-16,42,0,58c8,8,18.5,12,29,12s21-4,29-12
		C94.5,64,94.5,38,78.5,22z M74,75.5C67.5,82,58.8,85.6,49.5,85.6S31.6,82,25.1,75.5C11.6,62,11.6,40,25.1,26.5
		c6.5-6.5,15.2-10.1,24.5-10.1S67.5,20,74,26.5v0c6.5,6.5,10.1,15.2,10.1,24.5C84.1,60.2,80.5,68.9,74,75.5z"/>
	<path class="st0" d="M49.3,24.2c-8.7,0-15.7,7-15.7,15.7c0,8.7,7,15.7,15.7,15.7c8.7,0,15.7-7,15.7-15.7
		C65,31.3,57.9,24.2,49.3,24.2z"/>
</g>
</svg>
