<?xml version="1.0" encoding="utf-8"?>
<!-- Generator: Adobe Illustrator 26.0.1, SVG Export Plug-In . SVG Version: 6.00 Build 0)  -->
<svg version="1.1" id="Layer_1" xmlns="http://www.w3.org/2000/svg" xmlns:xlink="http://www.w3.org/1999/xlink" x="0px" y="0px"
	 viewBox="0 0 82 82" style="enable-background:new 0 0 82 82;" xml:space="preserve">
<style type="text/css">
	.st0{fill:#646470;}
</style>
<g id="Info">
	<path class="st0" d="M70,12C54-4,28-4,12,12s-16,42,0,58c16,16,42,16,58,0c16-15.9,16.1-41.8,0.2-57.8C70.1,12.1,70.1,12.1,70,12z
		 M65.5,65.5C52,79,30,79,16.5,65.5S3,30,16.5,16.5C30.1,3,52,3,65.5,16.5l0,0C79,30.1,79,51.9,65.5,65.5z"/>
	<path class="st0" d="M40.7,14.2C32,14.2,25,21.3,25,30s7.1,15.7,15.7,15.7c8.7,0,15.7-7,15.7-15.7C56.5,21.3,49.4,14.2,40.7,14.2
		C40.7,14.2,40.7,14.2,40.7,14.2z"/>
</g>
</svg>
